<svg width="110" height="110" viewBox="0 0 110 110" fill="none" xmlns="http://www.w3.org/2000/svg">
<path d="M0 16C0 7.16344 7.16344 0 16 0H94C102.837 0 110 7.16344 110 16V94C110 102.837 102.837 110 94 110H16C7.16344 110 0 102.837 0 94V16Z" fill="#4491FF"/>
<path d="M43.8803 61.8929C36.6742 59.9502 32.7726 52.1109 35.5432 45.1418C38.4708 37.778 47.3775 34.9707 53.9577 39.3378L68.6901 49.1153C72.1369 51.4029 73.7413 55.6535 72.6726 59.6664C71.3018 64.8134 66.0435 67.8678 60.9278 66.4887L43.8803 61.8929Z" fill="white"/>
<path d="M63.082 20.7049C64.6179 19.4544 66.9246 20.2063 67.4398 22.1254C67.6456 22.8919 67.512 23.7106 67.0735 24.3707L51.1364 48.3588C48.6536 52.0959 43.3946 52.6166 40.2353 49.438C37.2603 46.4448 37.5178 41.518 40.7884 38.8552L63.082 20.7049Z" fill="white"/>
<path d="M57.571 54.9509C60.4262 52.0783 65.0553 52.0783 67.9104 54.9509C71.2357 58.2965 70.6022 63.8849 66.6136 66.3912L39.6344 83.3442C37.5431 84.6583 34.784 83.5742 34.1314 81.1819C33.7811 79.8974 34.1428 78.5226 35.0789 77.5808L57.571 54.9509Z" fill="white"/>
</svg>
